<?xml version="1.0" encoding="UTF-8" standalone="no"?>
<svg width="100px" height="100px" viewBox="0 0 100 100" version="1.1" xmlns="http://www.w3.org/2000/svg" xmlns:xlink="http://www.w3.org/1999/xlink">
	<g stroke="none" stroke-width="1" fill="none" fill-rule="evenodd">
		<path d="M120,108 C120,114.6 114.6,120 108,120 L12,120 C5.4,120 0,114.6 0,108 L0,12 C0,5.4 5.4,0 12,0 L108,0 C114.6,0 120,5.4 120,12 L120,108 L120,108 Z" id="Shape" fill="#2A739E"/>
	<path fill="#F26891" d="M74,38H40c-3.3,0-6,2.7-6,6v22c0,3.3,2.7,6,6,6h34c3.3,0,6-2.7,6-6V44C80,40.7,77.3,38,74,38z M68.5,55H66
		v10c0,0.6-0.4,1-1,1h-4c-0.6,0-1-0.4-1-1v-6c0-0.6-0.4-1-1-1h-4c-0.6,0-1,0.4-1,1v6c0,0.6-0.4,1-1,1h-4c-0.6,0-1-0.4-1-1V55h-2.5
		c-0.5,0-0.7-0.6-0.3-0.9L56.4,43.2c0.399-0.3,0.899-0.3,1.3,0L68.9,54.1C69.2,54.4,69,55,68.5,55z"/>	</g>
</svg>